#!OML:ASF H:\Pregnant\Project 1\Capture day 1\Session 1\femalepreg.ASF
:FULLY-SPECIFIED
:DEGREES
1271
root 5.52154 9.76819 16.1887 -109.614 -4.19334 -173.599
lowerback 10.9758 0.544377 -10.2406
upperback 6.97328 0.483694 2.94001
thorax 1.20929 0.0952076 8.89201
lowerneck -36.2844 2.22374 -5.66311
upperneck 22.6201 5.05736 3.46274
head 13.2555 2.19058 3.34491
rclavicle 7.95139e-015 5.53118e-014
rhumerus 58.4224 34.1482 -17.5098
rradius 32.4767
rwrist -7.69348
rhand -61.3123 95.1508
rfingers 7.12502
rthumb -33.4003 122.066
lclavicle 7.95139e-015 5.53118e-014
lhumerus 47.4508 -17.1962 56.1506
lradius 29.8525
lwrist 5.14026
lhand -50.567 98.4429
lfingers 7.12502
lthumb -23.1333 -69.8118
rfemur -158.1 14.4481 37.5589
rtibia 96.6697
rfoot -1.15025 9.16477
rtoes 13.57
lfemur -4.99861 -15.4349 -9.43745
ltibia 2.22639e-014
lfoot 8.32018 8.78808
ltoes -23.0364
1272
root 5.52928 9.75256 16.214 -109.689 -4.18414 -173.673
lowerback 10.9537 0.547258 -10.2768
upperback 6.96619 0.485727 2.95492
thorax 1.21412 0.0945635 8.92924
lowerneck -36.2388 2.23482 -5.55029
upperneck 22.5222 5.04448 3.33965
head 13.2154 2.17915 3.27025
rclavicle -1.90833e-014 3.31598e-014
rhumerus 58.1793 34.0029 -17.8362
rradius 32.5157
rwrist -7.40037
rhand -61.3234 95.6433
rfingers 7.12502
rthumb -33.4108 122.556
lclavicle -1.90833e-014 3.31598e-014
lhumerus 47.4504 -17.1087 56.386
lradius 29.8685
lwrist 4.92638
lhand -50.6093 98.1762
lfingers 7.12502
lthumb -23.1738 -69.5502
rfemur -158.346 14.3478 37.5463
rtibia 96.6974
rfoot -0.697216 9.51577
rtoes 13.9833
lfemur -4.88204 -15.5113 -9.45066
ltibia 3.18055e-014
lfoot 7.79551 8.79274
ltoes -23.4714
1273
root 5.53588 9.7372 16.2418 -109.787 -4.16107 -173.772
lowerback 10.9586 0.537865 -10.3264
upperback 6.96824 0.46962 2.96419
thorax 1.21868 0.0846911 8.9701
lowerneck -36.201 2.25654 -5.42742
upperneck 22.448 5.04479 3.20872
head 13.1863 2.17225 3.19477
rclavicle 3.81667e-014 4.88265e-015
rhumerus 58.0361 33.8691 -18.0389
rradius 32.5577
rwrist -7.17254
rhand -61.3301 95.8966
rfingers 7.12502
rthumb -33.4171 122.808
lclavicle 3.81667e-014 4.88265e-015
lhumerus 47.4737 -16.9953 56.5883
lradius 29.8739
lwrist 4.7394
lhand -50.6526 97.8846
lfingers 7.12502
lthumb -23.2154 -69.2638
rfemur -158.574 14.2241 37.5197
rtibia 96.7081
rfoot -0.254507 9.8355
rtoes 14.4175
lfemur -4.74954 -15.6113 -9.49511
ltibia 1.27222e-014
lfoot 7.2342 8.7957
ltoes -23.8994
1274
root 5.54104 9.72195 16.271 -109.917 -4.12518 -173.883
lowerback 10.9963 0.522926 -10.3835
upperback 6.98034 0.444654 2.96723
thorax 1.21866 0.0708378 9.00953
lowerneck -36.1731 2.28257 -5.31146
upperneck 22.4026 5.04748 3.10801
head 13.1695 2.16963 3.13443
rclavicle 3.18055e-015 -1.90336e-014
rhumerus 57.96 33.7394 -18.1639
rradius 32.5982
rwrist -6.96931
rhand -61.3278 95.8553
rfingers 7.12502
rthumb -33.4149 122.767
lclavicle 3.18055e-015 -1.90336e-014
lhumerus 47.518 -16.8717 56.7657
lradius 29.8534
lwrist 4.5743
lhand -50.6936 97.6019
lfingers 7.12502
lthumb -23.2546 -68.9861
rfemur -158.765 14.082 37.4892
rtibia 96.7055
rfoot 0.166514 10.1363
rtoes 14.866
lfemur -4.58347 -15.7258 -9.57317
ltibia 9.54166e-015
lfoot 6.62962 8.79383
ltoes -24.3157
1275
root 5.5447 9.707 16.3015 -110.074 -4.08406 -174.003
lowerback 11.0619 0.505111 -10.4419
upperback 7.00116 0.415126 2.96942
thorax 1.21409 0.055238 9.04936
lowerneck -36.1576 2.30804 -5.21535
upperneck 22.3772 5.04856 3.05027
head 13.161 2.1707 3.09519
rclavicle -1.90833e-014 -6.29899e-015
rhumerus 57.916 33.6006 -18.2573
rradius 32.6351
rwrist -6.74813
rhand -61.316 95.5064
rfingers 7.12502
rthumb -33.4038 122.421
lclavicle -1.90833e-014 -6.29899e-015
lhumerus 47.5873 -16.7524 56.9119
lradius 29.8098
lwrist 4.44844
lhand -50.7322 97.3254
lfingers 7.12502
lthumb -23.2917 -68.7142
rfemur -158.922 13.9204 37.4574
rtibia 96.6856
rfoot 0.560618 10.4244
rtoes 15.3089
lfemur -4.3903 -15.8522 -9.67265
ltibia 1.59028e-014
lfoot 5.98196 8.78575
ltoes -24.7136
1276
root 5.54668 9.69242 16.334 -110.239 -4.03941 -174.138
lowerback 11.1444 0.482163 -10.4982
upperback 7.02179 0.377539 2.96892
thorax 1.20212 0.0363029 9.08595
lowerneck -36.1421 2.33289 -5.1355
upperneck 22.3648 5.04579 3.0336
head 13.1561 2.17482 3.07467
rclavicle 2.70347e-014 9.44227e-015
rhumerus 57.8591 33.4383 -18.3989
rradius 32.6584
rwrist -6.45999
rhand -61.2989 94.8447
rfingers 7.12502
rthumb -33.3875 121.762
lclavicle 2.70347e-014 9.44227e-015
lhumerus 47.685 -16.6492 57.0069
lradius 29.7496
lwrist 4.37951
lhand -50.7673 97.0511
lfingers 7.12502
lthumb -23.3254 -68.4442
rfemur -159.063 13.7353 37.4173
rtibia 96.6391
rfoot 0.92867 10.7051
rtoes 15.7495
lfemur -4.19637 -15.9932 -9.78516
ltibia 9.54166e-015
lfoot 5.29426 8.76766
ltoes -25.0594
1277
root 5.54779 9.6787 16.3686 -110.387 -3.98807 -174.268
lowerback 11.2174 1.30499 -10.3909
upperback 6.98933 0.107601 3.04501
thorax 1.08768 -0.604971 9.12489
lowerneck -36.1194 2.36067 -5.0629
upperneck 22.3546 5.04451 3.03824
head 13.1498 2.18233 3.06402
rclavicle -4.77083e-015 1.30701e-014
rhumerus 57.7729 33.2492 -18.6177
rradius 32.6628
rwrist -6.10345
rhand -61.2807 93.9559
rfingers 7.12502
rthumb -33.3702 120.877
lclavicle -4.77083e-015 1.30701e-014
lhumerus 47.8013 -16.56 57.065
lradius 29.6762
lwrist 4.35332
lhand -50.7985 96.777
lfingers 7.12502
lthumb -23.3553 -68.174
rfemur -159.188 13.5567 37.3624
rtibia 96.5463
rfoot 1.2716 10.9733
rtoes 16.2256
lfemur -4.02443 -16.1222 -9.89359
ltibia 1.90833e-014
lfoot 4.57523 8.73545
ltoes -25.3374
1278
root 5.5478 9.6658 16.4054 -110.516 -3.93708 -174.391
lowerback 11.2742 1.28649 -10.4442
upperback 6.99332 0.069577 3.0468
thorax 1.07098 -0.626076 9.16259
lowerneck -36.0939 2.39527 -4.98412
upperneck 22.3451 5.05046 3.03991
head 13.1433 2.19305 3.0526
rclavicle 1.59028e-014 -7.30534e-015
rhumerus 57.6592 33.0321 -18.9185
rradius 32.6413
rwrist -5.68632
rhand -61.2683 92.936
rfingers 7.12502
rthumb -33.3584 119.86
lclavicle 1.59028e-014 -7.30534e-015
lhumerus 47.9372 -16.4809 57.0787
lradius 29.6029
lwrist 4.37804
lhand -50.8301 96.4901
lfingers 7.12502
lthumb -23.3857 -67.8909
rfemur -159.295 13.3793 37.2986
rtibia 96.4005
rfoot 1.56947 11.2413
rtoes 16.7396
lfemur -3.87531 -16.2402 -9.98869
ltibia 3.18055e-014
lfoot 3.83503 8.68504
ltoes -25.4886
1279
root 5.54685 9.65325 16.4442 -110.615 -3.88735 -174.499
lowerback 11.3037 1.26616 -10.4899
upperback 6.98586 0.0348512 3.05067
thorax 1.0562 -0.643963 9.19769
lowerneck -36.0642 2.44136 -4.88722
upperneck 22.3333 5.07008 3.01692
head 13.1357 2.20745 3.031
rclavicle 3.02153e-014 3.00165e-014
rhumerus 57.5279 32.7946 -19.2868
rradius 32.5867
rwrist -5.23418
rhand -61.2615 91.8097
rfingers 7.12502
rthumb -33.352 118.735
lclavicle 3.02153e-014 3.00165e-014
lhumerus 48.0811 -16.4081 57.0664
lradius 29.534
lwrist 4.43465
lhand -50.8628 96.1919
lfingers 7.12502
lthumb -23.417 -67.5967
rfemur -159.388 13.2127 37.2256
rtibia 96.1957
rfoot 1.81829 11.5056
rtoes 17.3534
lfemur -3.76115 -16.338 -10.0651
ltibia 9.54166e-015
lfoot 3.10956 8.606
ltoes -25.644
1280
root 5.54487 9.64172 16.484 -110.7 -3.84337 -174.58
lowerback 11.3223 1.25047 -10.521
upperback 6.97025 0.00997629 3.06024
thorax 1.03609 -0.655327 9.22945
lowerneck -36.03 2.49816 -4.76821
upperneck 22.315 5.10435 2.95443
head 13.126 2.22405 2.99271
rclavicle 2.06736e-014 3.97569e-015
rhumerus 57.3973 32.549 -19.6759
rradius 32.5029
rwrist -4.78693
rhand -61.2582 90.6217
rfingers 7.12502
rthumb -33.3488 117.548
lclavicle 2.06736e-014 3.97569e-015
lhumerus 48.2066 -16.3305 57.0854
lradius 29.4709
lwrist 4.47143
lhand -50.8944 95.8837
lfingers 7.12502
lthumb -23.4473 -67.2923
rfemur -159.432 13.0593 37.1594
rtibia 95.9302
rfoot 1.99207 11.7694
rtoes 18.0718
lfemur -3.65984 -16.4102 -10.1205
ltibia 9.54166e-015
lfoot 2.3925 8.50765
ltoes -25.6415
1281
root 5.54162 9.6304 16.5251 -110.775 -3.80564 -174.637
lowerback 11.3335 1.23803 -10.5363
upperback 6.94981 -0.00762198 3.07707
thorax 1.01289 -0.661966 9.25913
lowerneck -36.0018 2.56227 -4.63787
upperneck 22.2896 5.15259 2.85923
head 13.1153 2.24261 2.94226
rclavicle 1.74931e-014 2.38045e-014
rhumerus 57.2851 32.2993 -20.057
rradius 32.3948
rwrist -4.36032
rhand -61.2608 270.595
rfingers 7.12502
rthumb -33.3513 116.33
lclavicle 1.74931e-014 2.38045e-014
lhumerus 48.3309 -16.2438 57.1138
lradius 29.4115
lwrist 4.51158
lhand -50.9272 95.5659
lfingers 7.12502
lthumb -23.4788 -66.9786
rfemur -159.431 12.9216 37.1054
rtibia 95.6061
rfoot 2.09243 12.023
rtoes 18.9004
lfemur -3.57205 -16.4603 -10.1588
ltibia 6.36111e-015
lfoot 1.70937 8.38989
ltoes -25.686
1282
root 5.53724 9.61905 16.5667 -110.858 -3.76732 -174.654
lowerback 11.3509 1.23817 -10.5403
upperback 6.92954 -0.00850608 3.09959
thorax 0.982306 -0.659725 9.28684
lowerneck -35.9824 2.62833 -4.50536
upperneck 22.2571 5.20792 2.74582
head 13.1038 2.26163 2.88562
rclavicle -7.95139e-015 -2.15433e-014
rhumerus 57.2024 32.0572 -20.3962
rradius 32.2747
rwrist -3.9808
rhand -61.2663 271.836
rfingers 7.12502
rthumb -33.3565 115.088
lclavicle -7.95139e-015 -2.15433e-014
lhumerus 48.4376 -16.1432 57.19
lradius 29.3436
lwrist 4.51706
lhand -50.9585 95.2678
lfingers 7.12502
lthumb -23.5088 -66.6843
rfemur -159.356 12.8231 37.0758
rtibia 95.2355
rfoot 2.12144 12.2466
rtoes 19.7844
lfemur -3.47156 -16.475 -10.1916
ltibia 6.36111e-015
lfoot 1.05895 8.26626
ltoes -25.8792
1283
root 5.53208 9.60822 16.6084 -110.95 -3.7335 -174.619
lowerback 11.3739 1.25299 -10.5296
upperback 6.9118 0.0102092 3.13058
thorax 0.946398 -0.647493 9.31321
lowerneck -35.9807 2.6951 -4.37307
upperneck 22.2166 5.26874 2.61911
head 13.0923 2.28098 2.82501
rclavicle -1.59028e-014 -5.11871e-015
rhumerus 57.1607 31.8284 -20.6704
rradius 32.1546
rwrist -3.65945
rhand -61.273 273.072
rfingers 7.12502
rthumb -33.3628 113.851
lclavicle -1.59028e-014 -5.11871e-015
lhumerus 48.5307 -16.0228 57.309
lradius 29.2633
lwrist 4.4854
lhand -50.992 94.9835
lfingers 7.12502
lthumb -23.5409 -66.4042
rfemur -159.207 12.7862 37.0887
rtibia 94.8357
rfoot 2.09616 12.4187
rtoes 20.7076
lfemur -3.35292 -16.4442 -10.209
ltibia -6.36111e-015
lfoot 0.427859 8.15094
ltoes -26.2544
